<?xml version="1.0" standalone="no"?>
<!DOCTYPE svg PUBLIC "-//W3C//DTD SVG 20010904//EN"
        "http://www.w3.org/TR/2001/REC-SVG-20010904/DTD/svg10.dtd">
<svg version="1.0" xmlns="http://www.w3.org/2000/svg"
     width="440.000000pt" height="280.000000pt" viewBox="0 0 440.000000 280.000000"
     preserveAspectRatio="xMidYMid meet">
    <g transform="translate(0.000000,280.000000) scale(0.100000,-0.100000)"
       fill="#880e4f">
        <path color="#ffff00" d="M0 1400 l0 -1400 2200 0 2200 0 0 1400 0 1400 -2200 0 -2200 0 0
-1400z m2240 1175 c0 -19 -91 -250 -135 -340 -47 -97 -62 -119 -131 -185 -44
-41 -101 -93 -129 -115 -449 -359 -637 -577 -695 -806 -45 -173 -8 -325 109
-451 103 -112 259 -162 430 -140 322 43 627 282 810 633 27 52 57 116 67 143
l18 48 -25 19 c-13 10 -27 19 -30 19 -3 0 -20 -22 -38 -50 -43 -66 -112 -124
-188 -157 -53 -23 -63 -31 -63 -53 0 -60 -32 -187 -62 -242 -17 -33 -53 -79
-79 -102 -69 -62 -107 -75 -406 -143 -13 -3 -23 -1 -23 6 0 11 2 12 135 91
200 118 347 262 362 355 l6 35 -81 0 c-78 0 -82 1 -116 34 -39 37 -45 68 -27
149 6 23 13 59 16 81 4 22 17 48 32 62 61 57 158 7 188 -96 4 -14 12 -30 17
-37 25 -32 200 83 247 162 12 21 24 57 28 80 3 24 9 48 13 55 12 20 40 3 40
-24 0 -23 49 -86 67 -86 4 0 16 28 26 62 10 35 27 82 38 105 10 23 19 45 19
48 0 14 75 123 109 158 69 73 162 98 232 61 33 -17 68 -81 69 -126 0 -49 -38
-213 -61 -263 -58 -124 -246 -244 -366 -233 l-35 3 -22 -85 c-94 -357 -345
-746 -584 -903 -349 -230 -755 -152 -910 174 -61 129 -77 208 -76 384 1 266
66 478 218 705 48 71 54 86 43 99 -7 9 -30 36 -51 60 -66 75 -86 132 -86 242
0 146 42 261 125 344 88 89 170 111 464 125 240 11 327 26 409 69 55 28 82 37
82 26z m559 -339 c13 -14 39 -32 57 -41 19 -9 34 -23 34 -31 0 -23 -49 -114
-61 -114 -23 0 -77 32 -108 64 l-32 33 27 57 c30 63 48 70 83 32z m665 -763
c62 -46 96 -157 96 -313 0 -289 -109 -417 -400 -469 -173 -31 -179 -27 -62 39
234 132 401 298 402 400 0 43 -17 50 -67 28 -54 -24 -84 -18 -124 22 -36 35
-38 81 -9 196 25 96 54 129 106 121 19 -3 44 -14 58 -24z"/>
        <path d="M1640 2243 c-228 -21 -308 -43 -368 -98 -32 -29 -34 -35 -28 -69 5
-26 25 -56 73 -106 l66 -70 -7 -72 -8 -71 56 64 c71 82 209 206 359 322 94 73
114 93 100 98 -18 8 -176 9 -243 2z"/>
        <path d="M2872 1813 c-45 -22 -118 -105 -147 -167 -25 -55 -55 -126 -55 -132
0 -14 106 0 152 20 108 48 220 178 204 239 -12 51 -91 72 -154 40z"/>
    </g>
</svg>
