<svg id="svg" version="1.1" xmlns="http://www.w3.org/2000/svg" width="400" height="250"
     viewBox="0, 0, 400,250">
    <g>
        <path id="path0"
              d="M 201.400 20.211
              C 201.050 20.403,199.707 21.204,198.416 21.992
              C 197.124 22.780,195.965 23.425,195.841 23.425
              C 195.716 23.425,194.874 23.760,193.969 24.171
              C 191.968 25.078,189.764 25.821,187.950 26.200
              C 187.204 26.356,186.399 26.587,186.161 26.715
              C 185.923 26.842,184.872 27.069,183.825 27.220
              C 182.779 27.371,180.713 27.712,179.236 27.978
              C 175.595 28.635,173.609 28.775,163.972 29.056
              C 159.421 29.189,154.838 29.349,153.787 29.413
              C 152.737 29.476,149.529 29.654,146.658 29.808
              C 132.771 30.551,122.582 34.164,116.794 40.399
              C 110.923 46.724,106.359 57.162,105.624 65.945
              C 104.504 79.332,106.691 86.610,114.307 94.840
              C 119.770 100.745,119.635 100.370,117.398 103.458
              C 114.917 106.882,114.125 108.026,113.402 109.230
              C 113.024 109.860,112.004 111.470,111.135 112.807
              C 108.828 116.359,104.933 123.708,103.517 127.180
              C 103.003 128.440,102.427 129.815,102.235 130.236
              C 102.044 130.656,101.694 131.515,101.457 132.145
              C 101.220 132.775,100.876 133.635,100.692 134.055
              C 100.508 134.475,100.279 135.162,100.183 135.582
              C 99.924 136.720,98.553 141.053,98.130 142.075
              C 97.927 142.565,97.604 143.826,97.412 144.876
              C 97.219 145.926,96.887 147.530,96.674 148.440
              C 95.135 154.994,94.848 157.282,94.195 168.173
              C 93.848 173.967,93.849 173.591,94.176 178.358
              C 94.813 187.636,95.341 191.047,96.992 196.563
              C 97.265 197.473,97.560 198.504,97.648 198.854
              C 98.351 201.654,102.453 210.499,103.924 212.385
              C 104.321 212.896,104.647 213.384,104.647 213.470
              C 104.647 213.704,106.419 216.181,107.117 216.922
              C 107.452 217.278,107.943 217.916,108.210 218.341
              C 108.476 218.766,109.860 220.141,111.285 221.396
              C 112.710 222.652,114.570 224.328,115.418 225.120
              C 116.266 225.913,117.368 226.784,117.869 227.057
              C 118.369 227.329,120.210 228.341,121.961 229.305
              C 125.300 231.145,126.541 231.671,129.472 232.490
              C 130.452 232.764,131.827 233.205,132.527 233.469
              C 133.227 233.733,134.258 234.011,134.819 234.086
              C 135.379 234.162,136.582 234.347,137.492 234.498
              C 142.408 235.313,150.636 235.264,155.315 234.392
              C 156.365 234.197,157.683 233.962,158.243 233.871
              C 161.161 233.396,166.739 231.721,170.337 230.238
              C 175.396 228.154,176.807 227.496,178.292 226.531
              C 181.518 224.433,183.389 223.274,184.292 222.813
              C 184.826 222.541,186.229 221.500,187.411 220.501
              C 188.594 219.501,190.821 217.664,192.362 216.417
              C 193.902 215.171,196.430 212.800,197.979 211.149
              C 204.199 204.520,204.672 203.959,208.866 198.218
              C 209.889 196.817,211.361 194.808,212.136 193.752
              C 213.312 192.151,214.413 190.411,216.295 187.177
              C 216.435 186.937,216.906 186.171,217.341 185.477
              C 219.497 182.033,222.652 176.471,224.195 173.393
              C 226.976 167.848,227.116 167.553,227.116 167.254
              C 227.116 167.098,227.337 166.553,227.606 166.044
              C 228.421 164.503,230.172 160.508,230.172 160.190
              C 230.172 160.026,230.288 159.692,230.430 159.449
              C 231.418 157.756,234.641 148.891,236.237 143.475
              C 237.564 138.976,238.029 137.150,238.324 135.286
              C 238.698 132.919,239.158 132.444,240.641 132.888
              C 242.308 133.387,247.001 133.277,248.851 132.694
              C 249.710 132.423,251.071 132.067,251.873 131.902
              C 252.676 131.736,253.399 131.495,253.480 131.364
              C 253.560 131.233,253.806 131.127,254.026 131.127
              C 254.403 131.127,257.088 129.847,260.645 127.972
              C 261.511 127.516,262.657 126.772,263.191 126.320
              C 263.726 125.867,265.227 124.622,266.528 123.554
              C 267.829 122.485,269.288 121.088,269.771 120.449
              C 270.253 119.810,271.392 118.313,272.303 117.123
              C 273.213 115.933,273.960 114.855,273.962 114.728
              C 273.964 114.601,274.252 114.122,274.602 113.663
              C 274.952 113.204,275.239 112.689,275.239 112.518
              C 275.239 112.347,275.568 111.509,275.970 110.655
              C 276.721 109.058,277.773 105.748,278.243 103.501
              C 278.390 102.801,278.689 101.540,278.907 100.700
              C 279.126 99.860,279.306 98.540,279.309 97.767
              C 279.311 96.994,279.557 95.504,279.857 94.457
              C 282.271 86.005,278.362 77.144,271.658 75.872
              C 268.714 75.314,263.308 75.672,261.665 76.534
              C 261.218 76.768,260.415 77.181,259.880 77.451
              C 255.609 79.605,251.116 84.245,247.427 90.311
              C 246.899 91.178,246.467 91.933,246.467 91.989
              C 246.467 92.044,245.901 93.032,245.208 94.184
              C 244.516 95.336,243.813 96.701,243.647 97.217
              C 243.481 97.732,243.261 98.269,243.157 98.409
              C 243.054 98.549,242.825 99.122,242.648 99.682
              C 242.471 100.242,242.218 100.838,242.084 101.007
              C 241.605 101.612,238.322 110.830,238.318 111.581
              C 238.317 111.758,238.154 112.214,237.956 112.594
              C 237.758 112.974,237.464 113.919,237.303 114.695
              C 236.490 118.613,230.831 113.850,229.946 108.503
              C 229.466 105.599,227.676 104.776,226.130 106.748
              C 225.937 106.994,225.628 108.369,225.444 109.803
              C 224.532 116.876,221.827 121.395,215.277 126.785
              C 207.059 133.547,199.363 136.140,199.363 132.147
              C 199.363 131.153,196.463 125.179,195.157 123.481
              C 193.905 121.854,193.336 121.418,190.462 119.885
              C 186.679 117.866,180.347 120.699,179.112 124.963
              C 178.881 125.762,178.598 126.531,178.484 126.671
              C 178.370 126.811,178.158 128.314,178.014 130.011
              C 177.870 131.708,177.503 134.114,177.200 135.358
              C 175.442 142.564,176.899 147.009,181.951 149.855
              L 183.705 150.842 187.142 150.937
              C 189.032 150.989,191.782 150.914,193.253 150.771
              L 195.926 150.510 196.626 151.261
              C 197.495 152.194,197.568 153.868,196.812 155.534
              C 196.535 156.144,196.308 156.816,196.308 157.027
              C 196.308 157.238,195.812 158.171,195.205 159.100
              C 194.598 160.029,193.882 161.153,193.613 161.598
              C 193.239 162.219,189.459 166.884,187.269 169.428
              C 187.129 169.591,186.213 170.394,185.232 171.214
              C 184.252 172.034,182.362 173.659,181.031 174.826
              C 178.683 176.886,175.513 179.264,171.134 182.251
              C 166.765 185.232,165.389 186.067,158.059 190.191
              C 152.581 193.274,152.017 193.684,152.009 194.584
              C 151.997 195.948,155.029 195.617,158.371 193.889
              C 158.777 193.679,159.501 193.507,159.981 193.507
              C 160.460 193.507,161.324 193.341,161.900 193.138
              C 162.476 192.934,164.066 192.581,165.433 192.353
              C 166.800 192.125,168.663 191.727,169.574 191.468
              C 170.484 191.210,171.848 190.927,172.605 190.839
              C 173.362 190.750,174.279 190.530,174.642 190.348
              C 175.005 190.166,175.875 189.884,176.575 189.722
              C 181.114 188.670,187.295 185.384,191.042 182.031
              C 193.362 179.954,196.675 175.673,198.020 173.011
              C 200.400 168.304,201.550 164.981,201.943 161.680
              C 202.085 160.490,202.377 158.829,202.592 157.989
              C 202.819 157.101,203.017 154.987,203.066 152.942
              C 203.122 150.611,203.257 149.294,203.469 149.039
              C 203.852 148.578,206.075 147.422,206.580 147.422
              C 207.142 147.422,210.663 145.753,212.947 144.404
              C 219.342 140.627,223.503 136.417,228.462 128.708
              C 229.409 127.235,230.091 127.008,230.988 127.866
              C 231.326 128.189,232.254 128.912,233.052 129.472
              C 235.079 130.896,235.110 131.227,233.540 134.683
              C 233.192 135.448,232.707 136.651,232.463 137.356
              C 231.799 139.270,229.819 143.809,229.016 145.258
              C 228.628 145.958,227.718 147.680,226.994 149.084
              C 225.536 151.910,224.299 154.101,224.051 154.297
              C 223.962 154.367,223.558 154.997,223.152 155.697
              C 220.650 160.017,219.511 161.645,212.985 170.236
              C 208.351 176.337,197.055 186.806,190.834 190.767
              C 190.274 191.124,189.585 191.636,189.303 191.906
              C 189.021 192.176,188.047 192.826,187.138 193.351
              C 184.305 194.990,183.727 195.338,182.953 195.877
              C 180.894 197.309,173.163 200.859,168.810 202.372
              C 167.619 202.785,166.073 203.325,165.372 203.571
              C 164.220 203.977,162.155 204.469,156.970 205.573
              C 150.956 206.854,139.736 206.748,135.443 205.369
              C 134.819 205.169,133.106 204.636,131.636 204.186
              C 119.827 200.570,109.154 190.251,105.315 178.740
              C 103.097 172.089,103.098 172.097,102.948 165.118
              C 102.835 159.892,102.882 158.433,103.210 156.970
              C 103.430 155.990,103.842 154.099,104.126 152.769
              C 104.411 151.439,104.804 149.949,105.001 149.459
              C 105.198 148.969,105.683 147.537,106.078 146.276
              C 106.814 143.934,110.870 135.588,112.229 133.619
              C 112.644 133.019,113.861 131.209,114.933 129.599
              C 116.005 127.989,117.366 126.079,117.957 125.356
              C 118.549 124.632,119.399 123.544,119.847 122.937
              C 121.278 120.997,126.995 114.698,130.525 111.172
              C 133.447 108.252,139.374 102.639,139.991 102.207
              C 140.246 102.028,141.085 101.272,141.855 100.527
              C 144.062 98.391,146.222 96.438,147.295 95.608
              C 147.838 95.188,149.539 93.756,151.074 92.425
              C 152.610 91.095,154.737 89.281,155.800 88.394
              C 156.864 87.508,158.192 86.399,158.752 85.930
              C 161.497 83.633,165.308 80.492,166.317 79.694
              C 166.937 79.204,168.010 78.318,168.700 77.725
              C 169.391 77.132,170.825 75.929,171.889 75.052
              C 179.151 69.060,183.393 64.774,186.941 59.845
              C 188.027 58.335,192.374 50.036,193.215 47.865
              C 193.404 47.376,193.993 46.003,194.524 44.812
              C 195.054 43.622,195.659 42.190,195.867 41.630
              C 196.075 41.069,196.564 39.809,196.954 38.829
              C 197.343 37.849,198.045 35.958,198.514 34.628
              C 198.983 33.297,199.526 31.865,199.722 31.445
              C 200.298 30.209,201.635 26.388,201.823 25.443
              C 201.919 24.963,202.264 24.038,202.590 23.388
              C 203.332 21.907,203.376 20.490,202.690 20.124
              C 202.083 19.799,202.165 19.793,201.400 20.211
              M 249.857 49.266
              C 249.189 49.734,247.813 51.930,247.587 52.889
              C 247.495 53.278,247.215 53.997,246.964 54.488
              C 246.713 54.978,246.143 56.200,245.696 57.203
              L 244.884 59.027 245.605 60.351
              C 247.502 63.837,255.188 68.650,257.396 67.736
              C 258.525 67.268,262.185 60.688,262.599 58.380
              C 262.786 57.341,261.929 56.246,260.474 55.664
              C 258.953 55.056,254.702 52.084,252.918 50.383
              C 251.281 48.821,250.762 48.632,249.857 49.266
              M 172.218 50.803
              C 172.880 51.465,172.270 52.105,167.842 55.395
              C 167.100 55.946,165.782 56.976,164.914 57.683
              C 164.046 58.390,162.934 59.243,162.444 59.579
              C 161.954 59.915,159.892 61.532,157.861 63.173
              C 150.832 68.852,151.091 68.634,144.137 74.700
              C 139.633 78.629,133.814 84.270,130.872 87.557
              C 129.822 88.731,128.843 89.820,128.698 89.976
              C 128.552 90.133,127.654 91.206,126.701 92.362
              C 124.881 94.571,124.852 94.592,124.262 94.219
              C 123.857 93.963,123.964 93.193,125.021 88.733
              C 125.287 87.613,125.538 85.588,125.578 84.233
              L 125.652 81.771 121.032 77.232
              C 109.679 66.078,109.944 60.551,122.088 55.185
              C 126.882 53.067,133.821 51.733,142.839 51.196
              C 145.570 51.034,148.320 50.807,148.950 50.692
              C 151.268 50.271,171.783 50.368,172.218 50.803
              M 271.272 89.106
              C 275.492 91.061,276.596 94.806,274.277 99.300
              C 272.773 102.214,266.668 109.046,264.113 110.674
              C 263.720 110.924,262.712 111.651,261.871 112.289
              C 260.196 113.561,255.983 115.696,253.978 116.289
              C 253.278 116.496,252.574 116.772,252.414 116.903
              C 251.694 117.490,243.694 117.632,242.981 117.070
              C 242.642 116.802,242.668 116.691,243.668 114.195
              C 244.060 113.215,244.707 111.553,245.105 110.503
              C 245.991 108.165,249.626 100.902,250.263 100.195
              C 250.518 99.913,251.026 99.166,251.391 98.536
              C 255.799 90.938,265.397 86.385,271.272 89.106
              M 307.829 118.386
              C 303.715 119.719,301.495 122.502,300.715 127.307
              C 300.590 128.078,300.348 129.052,300.177 129.472
              C 300.007 129.892,299.670 131.324,299.429 132.654
              C 299.188 133.985,298.793 135.801,298.551 136.690
              C 297.250 141.475,298.499 145.931,301.821 148.348
              C 305.761 151.215,308.964 151.267,313.837 148.544
              C 316.478 147.068,317.460 147.442,318.130 150.176
              C 318.876 153.220,317.761 156.756,314.519 161.629
              C 309.311 169.456,296.297 180.362,284.405 186.865
              C 282.514 187.899,280.272 189.186,279.422 189.725
              C 278.572 190.265,277.758 190.707,277.613 190.707
              C 276.952 190.707,274.956 192.547,275.033 193.085
              C 275.134 193.790,277.281 193.758,279.511 193.018
              C 280.312 192.752,282.285 192.396,283.896 192.228
              C 285.506 192.059,287.623 191.705,288.601 191.441
              C 289.578 191.177,290.853 190.961,291.433 190.961
              C 292.014 190.961,292.983 190.787,293.586 190.574
              C 294.190 190.361,295.419 190.016,296.317 189.808
              C 309.613 186.724,319.550 176.698,322.174 163.717
              C 322.387 162.667,322.708 161.464,322.889 161.044
              C 323.136 160.473,323.241 157.647,323.307 149.840
              L 323.395 139.400 322.505 135.964
              C 322.016 134.073,321.380 132.011,321.093 131.381
              C 320.806 130.751,320.569 129.975,320.566 129.656
              C 320.559 128.984,319.147 126.095,317.742 123.878
              C 316.610 122.092,313.807 119.778,312.119 119.236
              C 311.510 119.040,310.783 118.778,310.503 118.653
              C 309.671 118.282,308.509 118.166,307.829 118.386 "
              stroke="none" fill="#ffffff"/>
    </g>
</svg>